<svg id="visual" viewBox="0 0 900 600" width="900" height="600" xmlns="http://www.w3.org/2000/svg" xmlns:xlink="http://www.w3.org/1999/xlink" version="1.1"><rect x="0" y="0" width="900" height="600" fill="#222831"></rect><path d="M0 430L12.5 434.2C25 438.3 50 446.7 75 444.5C100 442.3 125 429.7 150 417.2C175 404.7 200 392.3 225 399.7C250 407 275 434 300 445C325 456 350 451 375 437.7C400 424.3 425 402.7 450 410.8C475 419 500 457 525 463.3C550 469.7 575 444.3 600 444.7C625 445 650 471 675 473.8C700 476.7 725 456.3 750 451.3C775 446.3 800 456.7 825 455.8C850 455 875 443 887.5 437L900 431L900 601L887.5 601C875 601 850 601 825 601C800 601 775 601 750 601C725 601 700 601 675 601C650 601 625 601 600 601C575 601 550 601 525 601C500 601 475 601 450 601C425 601 400 601 375 601C350 601 325 601 300 601C275 601 250 601 225 601C200 601 175 601 150 601C125 601 100 601 75 601C50 601 25 601 12.5 601L0 601Z" fill="#393E46" stroke-linecap="round" stroke-linejoin="miter"></path></svg>