<svg id="visual" viewBox="0 0 900 600" width="900" height="600" xmlns="http://www.w3.org/2000/svg" xmlns:xlink="http://www.w3.org/1999/xlink" version="1.1"><rect x="0" y="0" width="900" height="600" fill="#00ADB5"></rect><path d="M0 139L8.3 134C16.7 129 33.3 119 50 119.3C66.7 119.7 83.3 130.3 100 174.8C116.7 219.3 133.3 297.7 150 349C166.7 400.3 183.3 424.7 200 391C216.7 357.3 233.3 265.7 250 253.8C266.7 242 283.3 310 300 306C316.7 302 333.3 226 350 208.7C366.7 191.3 383.3 232.7 400 231.5C416.7 230.3 433.3 186.7 450 176.2C466.7 165.7 483.3 188.3 500 223.5C516.7 258.7 533.3 306.3 550 328.2C566.7 350 583.3 346 600 357.3C616.7 368.7 633.3 395.3 650 376.8C666.7 358.3 683.3 294.7 700 272.2C716.7 249.7 733.3 268.3 750 246.5C766.7 224.7 783.3 162.3 800 161.5C816.7 160.7 833.3 221.3 850 222.3C866.7 223.3 883.3 164.7 891.7 135.3L900 106L900 0L891.7 0C883.3 0 866.7 0 850 0C833.3 0 816.7 0 800 0C783.3 0 766.7 0 750 0C733.3 0 716.7 0 700 0C683.3 0 666.7 0 650 0C633.3 0 616.7 0 600 0C583.3 0 566.7 0 550 0C533.3 0 516.7 0 500 0C483.3 0 466.7 0 450 0C433.3 0 416.7 0 400 0C383.3 0 366.7 0 350 0C333.3 0 316.7 0 300 0C283.3 0 266.7 0 250 0C233.3 0 216.7 0 200 0C183.3 0 166.7 0 150 0C133.3 0 116.7 0 100 0C83.3 0 66.7 0 50 0C33.3 0 16.7 0 8.3 0L0 0Z" fill="#393E46" stroke-linecap="round" stroke-linejoin="miter"></path></svg>